<?xml version="1.0" encoding="UTF-8"?>
<svg width="183px" height="164px" viewBox="0 0 183 164" version="1.1" xmlns="http://www.w3.org/2000/svg" xmlns:xlink="http://www.w3.org/1999/xlink">
    <!-- Generator: Sketch 42 (36781) - http://www.bohemiancoding.com/sketch -->
    <title>Group 2</title>
    <desc>Created with Sketch.</desc>
    <defs></defs>
    <g id="小程序" stroke="none" stroke-width="1" fill="none" fill-rule="evenodd">
        <g id="iPhone-7" transform="translate(-34.000000, -117.000000)">
            <g id="Group-2" transform="translate(32.000000, 113.000000)">
                <text id="Crazy-CDN" font-family="OCRAStd, OCR A Std" font-size="24" font-weight="normal" letter-spacing="0.226890743" fill="#1F1F1F">
                    <tspan x="0.00892857143" y="163">Crazy CDN</tspan>
                </text>
                <g id="Group" transform="translate(0.008929, 0.000000)">
                    <path d="M129.127841,15.7936936 C129.673916,15.9840255 130.264652,16.0880196 130.881249,16.0880196 C133.664738,16.0880196 135.921201,13.9687611 135.921201,11.3545232 C135.921201,8.74028539 133.664738,6.62102689 130.881249,6.62102689 C128.097761,6.62102689 125.841297,8.74028539 125.841297,11.3545232 C125.841297,12.9627783 126.695278,14.3837036 128.000583,15.2391265 C127.243198,16.6628402 126.420221,18.5737809 125.998796,20.5741834 C125.143765,24.632811 125.998796,28.809291 125.998796,28.809291 C125.998796,28.809291 127.677459,29.6020306 127.253704,28.3917807 C127.047216,27.8020461 126.366288,24.2590009 127.253704,20.5741834 C127.678609,18.8098507 128.444703,17.0984057 129.127841,15.7936936 Z" id="Combined-Shape" fill="#3C3B39" transform="translate(130.769992, 17.842636) rotate(12.000000) translate(-130.769992, -17.842636) "></path>
                    <path d="" id="Path-3" stroke="#979797"></path>
                    <path d="M149.541673,21.4661426 C148.52337,22.5660735 146.78405,24.6267312 145.683374,26.9301316 C144.049234,30.3499227 143.978641,33.9571167 144.058005,34.5768955 C144.220874,35.8488021 142.743714,34.7243721 142.743714,34.7243721 C142.743714,34.7243721 142.775706,30.4613873 144.455889,26.6692215 C145.620546,24.0405948 147.525292,21.7501797 148.669022,20.6100883 C148.179003,19.9592286 147.891087,19.164616 147.891087,18.306846 C147.891087,16.1010828 149.794978,14.3129584 152.143546,14.3129584 C154.492115,14.3129584 156.396005,16.1010828 156.396005,18.306846 C156.396005,20.5126091 154.492115,22.3007335 152.143546,22.3007335 C151.163467,22.3007335 150.260828,21.9893374 149.541673,21.4661426 Z" id="Combined-Shape" fill="#3C3B39"></path>
                    <path d="M92.6853759,106.672402 C130.382332,106.672402 160.941752,89.4094858 160.941752,68.114599 C160.941752,46.8197122 130.382332,29.5567957 92.6853759,29.5567957 C66.228837,29.5567957 43.2879168,38.0597073 31.9592042,50.4917939 C27.146048,55.7737335 7.33038595,68.114599 7.33038595,68.114599 C7.33038595,68.114599 26.2138326,78.1718643 29.4529007,82.6605102 C39.6165795,96.745165 64.0987171,106.672402 92.6853759,106.672402 Z" id="Oval" stroke="#979797" fill="#F5B626" transform="translate(84.136069, 68.114599) rotate(-13.000000) translate(-84.136069, -68.114599) "></path>
                    <path d="M95.3948562,106.41703 C130.836248,106.41703 159.968688,91.1581327 163.328031,71.6355695 C163.437928,70.9969098 119.664459,85.9564021 86.2348445,80.9817352 C52.8052301,76.0070683 33.2796966,51.6006557 32.9456861,51.8942277 C31.5977875,53.0789372 29.852297,54.4411247 27.9263682,55.8597978 C20.371414,61.4249101 10.0398662,67.8592267 10.0398662,67.8592267 C10.0398662,67.8592267 28.9233129,77.916492 32.162381,82.4051379 C42.3260598,96.4897927 66.8081974,106.41703 95.3948562,106.41703 Z" id="Oval" fill="#E7AC2C" transform="translate(86.684052, 79.154316) rotate(-13.000000) translate(-86.684052, -79.154316) "></path>
                    <path d="M31.7417862,65.9743454 C30.3938875,67.1590549 28.6483971,68.5212424 26.7224682,69.9399155 C19.1675141,75.5050279 8.83596631,81.9393444 8.83596631,81.9393444 C8.83596631,81.9393444 27.719413,91.9966097 30.958481,96.4852556 C31.2025097,96.8234265 28.4395742,86.3151831 28.6134745,78.7006285 C28.7873748,71.0860738 31.9033032,65.8323832 31.7417862,65.9743454 Z" id="Oval" fill="#3C3B39" transform="translate(20.291909, 81.232377) rotate(-13.000000) translate(-20.291909, -81.232377) "></path>
                    <path d="M123.687797,95.0109597 C127.721726,93.7856182 131.512386,92.3377625 135.008307,90.6964675 C135.811269,90.3194856 115.061306,72.2405255 112.315437,58.3771599 C109.569569,44.5137944 118.192116,25.5450774 116.97265,25.2666323 C113.924519,24.5706411 110.767091,23.9953976 107.518947,23.551398 C103.255463,22.9686081 97.014427,42.5566604 98.3691742,60.7735841 C99.7239214,78.9905078 119.530547,96.2737611 123.687797,95.0109597 Z" id="Oval" stroke="#979797" fill="#3C3B39" transform="translate(116.605762, 59.307432) rotate(-13.000000) translate(-116.605762, -59.307432) "></path>
                    <path d="M55.2422236,44.1003725 C49.5262132,46.3245625 44.4400435,49.0281832 40.1656485,52.1084606 C38.9074625,53.0151531 34.2207416,62.8313789 34.7621333,74.0904977 C35.303525,85.3496166 41.4068502,100.639706 44.4749551,102.460011 C49.5946701,105.497535 55.582544,108.063838 62.213812,110.031951 C62.9175512,110.240816 52.8188984,92.5865739 50.9569978,75.3198939 C49.0950973,58.0532139 55.816047,43.8770887 55.2422236,44.1003725 Z" id="Oval" stroke="#979797" fill="#3C3B39" transform="translate(48.483842, 77.065779) rotate(-13.000000) translate(-48.483842, -77.065779) "></path>
                    <path d="M92.6704346,106.549238 C96.2747675,106.549238 99.8138497,106.391422 103.267208,106.087355 C103.756015,106.044315 86.6003824,83.7380214 85.484724,64.8157405 C84.3690657,45.8934596 99.2363369,29.6067035 98.3841142,29.5668057 C96.5002275,29.4786094 94.5946294,29.4336315 92.6704346,29.4336315 C88.2963727,29.4336315 84.018407,29.6660504 79.8731269,30.1102188 C78.7154617,30.2342631 67.5771299,40.6095373 66.2471748,60.6444589 C65.0906908,78.0661474 72.6536955,105.451391 84.2353921,106.257721 C86.9993123,106.450148 89.8143884,106.549238 92.6704346,106.549238 Z" id="Oval" stroke="#979797" fill="#3C3B39" transform="translate(84.704091, 67.991435) rotate(-13.000000) translate(-84.704091, -67.991435) "></path>
                    <ellipse id="Oval-3" fill="#3C3B39" transform="translate(29.813057, 26.902061) rotate(30.000000) translate(-29.813057, -26.902061) " cx="29.8130566" cy="26.9020606" rx="21.6317365" ry="9.64318876"></ellipse>
                    <ellipse id="Oval-3" fill="#3C3B39" transform="translate(67.850164, 17.745210) scale(-1, 1) rotate(50.000000) translate(-67.850164, -17.745210) " cx="67.8501643" cy="17.7452097" rx="16.7850706" ry="7.20160957"></ellipse>
                </g>
                <path d="M179.307559,75.8269175 L155.568663,75.8269175 C154.712939,75.8269175 154.019053,76.4771155 154.019053,77.2792719 L154.019053,101.728356 C154.019053,102.530547 154.712939,103.180848 155.568663,103.180848 L179.307559,103.180848 C180.163284,103.180848 180.857169,102.530547 180.857169,101.728356 L180.857169,77.2792719 C180.857169,76.4771155 180.163284,75.8269175 179.307559,75.8269175 Z M162.830127,77.0538243 C163.110486,77.0084166 163.391989,77.1763524 163.447743,77.4434036 C163.453536,77.4723151 163.637736,78.2403033 164.455122,78.3751431 L169.813263,78.368261 C170.538697,78.2403033 170.723044,77.4723151 170.730277,77.4393573 C170.790496,77.175142 171.069563,77.0111141 171.35077,77.0566601 C171.633416,77.1116473 171.817764,77.3677702 171.762858,77.6333689 C171.750312,77.6925406 171.441136,79.0923286 169.90492,79.3469644 L167.133768,79.3538811 L164.363465,79.3538811 C162.735445,79.0923286 162.426416,77.6925406 162.41387,77.6333689 C162.358669,77.3649344 162.544455,77.106114 162.830127,77.0538243 Z M174.749647,91.3134295 L157.079788,91.3134295 C156.789061,91.3134295 156.553276,91.0932385 156.553276,90.8207578 C156.553276,90.5481388 156.789061,90.3279478 157.079788,90.3279478 L174.749647,90.3279478 C175.040522,90.3279478 175.276196,90.5481388 175.276196,90.8207578 C175.276196,91.0932385 175.040522,91.3134295 174.749647,91.3134295 Z M156.553276,87.6495166 C156.553276,87.3768976 156.789061,87.1567066 157.079788,87.1567066 L168.85994,87.1567066 C169.150815,87.1567066 169.386489,87.3768976 169.386489,87.6495166 C169.386489,87.9221011 169.150815,88.1421883 168.85994,88.1421883 L157.079788,88.1421883 C156.789061,88.1421883 156.553276,87.9221011 156.553276,87.6495166 Z M174.749647,84.6186139 L157.079788,84.6186139 C156.789061,84.6186139 156.553276,84.3984229 156.553276,84.1258038 C156.553276,83.8531848 156.789061,83.6331321 157.079788,83.6331321 L174.749647,83.6331321 C175.040522,83.6331321 175.276196,83.8531848 175.276196,84.1258038 C175.276196,84.3984229 175.040522,84.6186139 174.749647,84.6186139 Z" id="552dc20d0b34a" fill="#3C3B39" transform="translate(167.438111, 89.503883) rotate(23.000000) translate(-167.438111, -89.503883) "></path>
            </g>
        </g>
    </g>
</svg>